<svg xmlns="http://www.w3.org/2000/svg" xmlns:xlink="http://www.w3.org/1999/xlink" width="256" viewBox="0 0 192 191.999996" height="256" preserveAspectRatio="xMidYMid meet"><defs><clipPath id="ef54611062"><path d="M 2.121094 30.285156 L 189.621094 30.285156 L 189.621094 161 L 2.121094 161 Z M 2.121094 30.285156 " clip-rule="nonzero"></path></clipPath></defs><g clip-path="url(#ef54611062)"><path fill="#0f88ca" d="M 164.621094 30.414062 L 27.121094 30.414062 C 26.300781 30.417969 25.484375 30.457031 24.671875 30.539062 C 23.855469 30.621094 23.046875 30.738281 22.246094 30.902344 C 21.441406 31.0625 20.648438 31.261719 19.867188 31.5 C 19.082031 31.738281 18.3125 32.011719 17.558594 32.324219 C 16.800781 32.640625 16.0625 32.988281 15.339844 33.375 C 14.621094 33.761719 13.917969 34.183594 13.238281 34.636719 C 12.558594 35.09375 11.902344 35.578125 11.269531 36.097656 C 10.636719 36.617188 10.03125 37.167969 9.453125 37.746094 C 8.871094 38.324219 8.324219 38.929688 7.804688 39.5625 C 7.285156 40.195312 6.796875 40.851562 6.34375 41.535156 C 5.886719 42.214844 5.46875 42.914062 5.082031 43.636719 C 4.695312 44.359375 4.34375 45.097656 4.03125 45.851562 C 3.71875 46.609375 3.441406 47.378906 3.203125 48.164062 C 2.964844 48.945312 2.765625 49.738281 2.605469 50.539062 C 2.445312 51.34375 2.324219 52.152344 2.242188 52.964844 C 2.164062 53.78125 2.121094 54.597656 2.121094 55.417969 L 2.121094 135.777344 C 2.121094 136.597656 2.164062 137.414062 2.242188 138.226562 C 2.324219 139.042969 2.445312 139.851562 2.605469 140.652344 C 2.765625 141.457031 2.964844 142.25 3.203125 143.03125 C 3.441406 143.816406 3.71875 144.585938 4.03125 145.339844 C 4.34375 146.097656 4.695312 146.835938 5.082031 147.558594 C 5.46875 148.28125 5.886719 148.980469 6.34375 149.660156 C 6.796875 150.339844 7.285156 151 7.804688 151.628906 C 8.324219 152.261719 8.871094 152.871094 9.453125 153.449219 C 10.03125 154.027344 10.636719 154.574219 11.269531 155.09375 C 11.902344 155.613281 12.558594 156.101562 13.238281 156.558594 C 13.917969 157.011719 14.621094 157.433594 15.339844 157.820312 C 16.0625 158.203125 16.800781 158.554688 17.558594 158.867188 C 18.3125 159.183594 19.082031 159.457031 19.867188 159.695312 C 20.648438 159.933594 21.441406 160.132812 22.246094 160.292969 C 23.046875 160.453125 23.855469 160.574219 24.671875 160.65625 C 25.484375 160.738281 26.300781 160.777344 27.121094 160.777344 L 164.621094 160.777344 C 165.4375 160.777344 166.257812 160.738281 167.070312 160.65625 C 167.886719 160.574219 168.695312 160.453125 169.496094 160.292969 C 170.300781 160.132812 171.09375 159.933594 171.875 159.695312 C 172.65625 159.457031 173.429688 159.183594 174.183594 158.867188 C 174.941406 158.554688 175.679688 158.207031 176.402344 157.820312 C 177.121094 157.433594 177.824219 157.011719 178.503906 156.558594 C 179.183594 156.101562 179.839844 155.613281 180.472656 155.097656 C 181.105469 154.578125 181.710938 154.027344 182.289062 153.449219 C 182.871094 152.871094 183.417969 152.265625 183.9375 151.632812 C 184.457031 151 184.945312 150.34375 185.398438 149.660156 C 185.855469 148.980469 186.273438 148.28125 186.660156 147.558594 C 187.046875 146.835938 187.398438 146.097656 187.710938 145.339844 C 188.023438 144.585938 188.300781 143.816406 188.539062 143.03125 C 188.777344 142.25 188.976562 141.457031 189.136719 140.652344 C 189.296875 139.851562 189.417969 139.042969 189.5 138.226562 C 189.578125 137.414062 189.621094 136.597656 189.621094 135.777344 L 189.621094 55.417969 C 189.621094 54.597656 189.578125 53.78125 189.5 52.964844 C 189.417969 52.152344 189.296875 51.34375 189.136719 50.539062 C 188.976562 49.738281 188.777344 48.945312 188.539062 48.160156 C 188.300781 47.378906 188.023438 46.609375 187.710938 45.851562 C 187.398438 45.097656 187.046875 44.359375 186.660156 43.636719 C 186.273438 42.914062 185.855469 42.214844 185.398438 41.53125 C 184.945312 40.851562 184.457031 40.195312 183.9375 39.5625 C 183.417969 38.929688 182.871094 38.324219 182.289062 37.746094 C 181.710938 37.167969 181.105469 36.617188 180.472656 36.097656 C 179.839844 35.578125 179.183594 35.09375 178.503906 34.636719 C 177.824219 34.183594 177.121094 33.761719 176.402344 33.375 C 175.679688 32.988281 174.941406 32.640625 174.183594 32.324219 C 173.429688 32.011719 172.65625 31.734375 171.875 31.496094 C 171.09375 31.261719 170.300781 31.0625 169.496094 30.898438 C 168.695312 30.738281 167.886719 30.621094 167.070312 30.539062 C 166.257812 30.457031 165.4375 30.417969 164.621094 30.414062 Z M 177.121094 135.777344 C 177.121094 136.597656 177.039062 137.410156 176.878906 138.214844 C 176.71875 139.019531 176.480469 139.800781 176.164062 140.558594 C 175.851562 141.316406 175.464844 142.039062 175.011719 142.71875 C 174.554688 143.402344 174.035156 144.03125 173.457031 144.613281 C 172.875 145.191406 172.246094 145.710938 171.5625 146.167969 C 170.878906 146.625 170.160156 147.007812 169.402344 147.324219 C 168.644531 147.636719 167.863281 147.875 167.058594 148.035156 C 166.253906 148.195312 165.441406 148.277344 164.621094 148.277344 L 27.121094 148.277344 C 26.300781 148.277344 25.488281 148.195312 24.683594 148.035156 C 23.878906 147.875 23.097656 147.636719 22.339844 147.324219 C 21.582031 147.007812 20.863281 146.625 20.179688 146.167969 C 19.496094 145.710938 18.867188 145.195312 18.285156 144.613281 C 17.707031 144.035156 17.1875 143.402344 16.730469 142.71875 C 16.273438 142.039062 15.890625 141.316406 15.574219 140.558594 C 15.261719 139.800781 15.023438 139.019531 14.863281 138.214844 C 14.703125 137.410156 14.621094 136.597656 14.621094 135.777344 L 14.621094 76.847656 L 177.121094 76.847656 Z M 177.121094 64.347656 L 14.621094 64.347656 L 14.621094 55.417969 C 14.621094 54.597656 14.703125 53.78125 14.863281 52.976562 C 15.023438 52.171875 15.261719 51.390625 15.574219 50.632812 C 15.890625 49.875 16.273438 49.15625 16.730469 48.472656 C 17.1875 47.792969 17.707031 47.160156 18.285156 46.582031 C 18.867188 46 19.496094 45.484375 20.179688 45.027344 C 20.863281 44.570312 21.582031 44.183594 22.339844 43.871094 C 23.097656 43.554688 23.878906 43.320312 24.683594 43.15625 C 25.488281 42.996094 26.300781 42.917969 27.121094 42.914062 L 164.621094 42.914062 C 165.441406 42.917969 166.253906 42.996094 167.058594 43.160156 C 167.863281 43.320312 168.644531 43.558594 169.402344 43.871094 C 170.160156 44.1875 170.878906 44.570312 171.5625 45.027344 C 172.246094 45.484375 172.875 46 173.457031 46.582031 C 174.035156 47.160156 174.554688 47.792969 175.011719 48.476562 C 175.464844 49.15625 175.851562 49.875 176.164062 50.636719 C 176.480469 51.394531 176.71875 52.175781 176.878906 52.980469 C 177.039062 53.785156 177.121094 54.597656 177.121094 55.417969 Z M 177.121094 64.347656 " fill-opacity="1" fill-rule="nonzero"></path></g><path fill="#0f88ca" d="M 45.402344 126.867188 C 45.402344 127.484375 45.34375 128.09375 45.222656 128.695312 C 45.101562 129.300781 44.925781 129.886719 44.6875 130.453125 C 44.453125 131.023438 44.164062 131.5625 43.820312 132.074219 C 43.480469 132.585938 43.089844 133.0625 42.65625 133.496094 C 42.222656 133.933594 41.746094 134.320312 41.234375 134.664062 C 40.722656 135.003906 40.183594 135.292969 39.613281 135.527344 C 39.046875 135.765625 38.460938 135.941406 37.855469 136.0625 C 37.253906 136.183594 36.644531 136.242188 36.027344 136.242188 C 35.410156 136.242188 34.800781 136.183594 34.199219 136.0625 C 33.59375 135.941406 33.007812 135.765625 32.441406 135.527344 C 31.871094 135.292969 31.332031 135.003906 30.820312 134.664062 C 30.308594 134.320312 29.832031 133.933594 29.398438 133.496094 C 28.960938 133.0625 28.574219 132.585938 28.230469 132.074219 C 27.890625 131.5625 27.601562 131.023438 27.367188 130.453125 C 27.128906 129.886719 26.953125 129.300781 26.832031 128.695312 C 26.710938 128.09375 26.652344 127.484375 26.652344 126.867188 C 26.652344 126.25 26.710938 125.640625 26.832031 125.039062 C 26.953125 124.433594 27.128906 123.847656 27.367188 123.277344 C 27.601562 122.710938 27.890625 122.171875 28.230469 121.660156 C 28.574219 121.148438 28.960938 120.671875 29.398438 120.238281 C 29.832031 119.800781 30.308594 119.414062 30.820312 119.070312 C 31.332031 118.730469 31.871094 118.441406 32.441406 118.207031 C 33.007812 117.96875 33.59375 117.792969 34.199219 117.671875 C 34.800781 117.550781 35.410156 117.492188 36.027344 117.492188 C 36.644531 117.492188 37.253906 117.550781 37.855469 117.671875 C 38.460938 117.792969 39.046875 117.96875 39.613281 118.207031 C 40.183594 118.441406 40.722656 118.730469 41.234375 119.070312 C 41.746094 119.414062 42.222656 119.800781 42.65625 120.238281 C 43.089844 120.671875 43.480469 121.148438 43.820312 121.660156 C 44.164062 122.171875 44.453125 122.710938 44.6875 123.277344 C 44.925781 123.847656 45.101562 124.433594 45.222656 125.039062 C 45.34375 125.640625 45.402344 126.25 45.402344 126.867188 Z M 45.402344 126.867188 " fill-opacity="1" fill-rule="nonzero"></path></svg>